<svg width="101" height="22" viewBox="0 0 101 22" fill="none" xmlns="http://www.w3.org/2000/svg">
	<path fillRule="evenodd" clipRule="evenodd" d="M17.2184 8.54918C19.6022 8.92935 21.4711 10.9672 21.7378 13.5148C21.7594 13.7212 21.7705 13.9309 21.7705 14.1436C21.7705 14.356 21.7594 14.5658 21.7378 14.7722C21.4416 17.6012 19.1697 19.8015 16.411 19.8015H16.2941L16.2948 19.8003C17.2803 17.9983 18.266 16.196 19.2515 14.3939C19.3386 14.2347 19.3386 14.0523 19.2515 13.8931L16.7367 9.29475C16.6434 9.12402 16.6504 8.92494 16.7556 8.76215C16.8608 8.59936 17.0337 8.51973 17.2183 8.54918H17.2184ZM2.78313 13.5148C3.10762 13.756 3.45363 13.9668 3.81761 14.1434C4.46513 14.4577 5.1698 14.6638 5.9105 14.7396C6.07588 14.7566 6.21044 14.8529 6.2865 15.0089C6.36255 15.1649 6.35858 15.3365 6.27553 15.4884L3.91665 19.8016L3.6398 20.308C3.55278 20.4672 3.55278 20.6495 3.6398 20.8088C3.72693 20.9681 3.87643 21.0592 4.05069 21.0592C8.16668 21.0592 12.2827 21.0592 16.3987 21.0592H16.4111C17.8134 21.0592 19.1128 20.5939 20.1782 19.8017C21.7093 18.6636 22.7575 16.8506 22.9348 14.7725C22.9526 14.5653 22.9616 14.3557 22.9616 14.1438C22.9616 13.9318 22.9526 13.7221 22.9348 13.515C22.7574 11.4368 21.7091 9.62374 20.1782 8.48565C19.8539 8.24444 19.5078 8.03368 19.1438 7.8571C18.4961 7.54277 17.7916 7.33664 17.0508 7.26087C16.8855 7.24388 16.7508 7.1476 16.6748 6.99154C16.5988 6.83569 16.6028 6.66397 16.6858 6.5121L19.0447 2.19895L19.3216 1.6926C19.4086 1.53334 19.4086 1.35114 19.3216 1.19177C19.2344 1.03251 19.0849 0.941406 18.9107 0.941406H18.3569H14.2312H12.8558H8.7301H6.56272H6.55039C5.14817 0.941406 3.84875 1.40672 2.78324 2.19895C1.25231 3.33704 0.204034 5.15012 0.0267448 7.22822C0.00898456 7.43524 0 7.6449 0 7.85688C0 8.06886 0.00898456 8.27852 0.0267448 8.48565C0.204138 10.5639 1.25241 12.3769 2.78324 13.515L2.78313 13.5148ZM14.645 19.8015H11.6147C11.4405 19.8015 11.291 19.7104 11.2039 19.5512C11.1168 19.3919 11.1168 19.2097 11.2038 19.0504C12.0527 17.4983 12.9018 15.946 13.7504 14.3937C13.8374 14.2345 13.8374 14.0523 13.7504 13.8931C12.6957 11.9646 11.6408 10.0359 10.5861 8.10713C10.499 7.94798 10.499 7.76556 10.5861 7.6063C11.5262 5.88719 12.4664 4.1682 13.4067 2.44909C13.4938 2.28983 13.6432 2.19872 13.8174 2.19872H16.8478C17.0219 2.19872 17.1714 2.28994 17.2587 2.44909C17.3457 2.60835 17.3457 2.79055 17.2586 2.94981L14.8042 7.43755L14.712 7.60641C14.6249 7.76556 14.625 7.94776 14.7121 8.10691C15.7667 10.0355 16.8216 11.9643 17.8762 13.8931C17.9632 14.0523 17.9632 14.2346 17.8762 14.3937L15.0558 19.5511C14.9686 19.7103 14.8191 19.8014 14.645 19.8014V19.8015ZM9.14391 19.8015H6.11349C5.93934 19.8015 5.78984 19.7104 5.70271 19.5512C5.61558 19.3919 5.61568 19.2097 5.70271 19.0504L8.04236 14.7721L8.15707 14.5626L8.24932 14.3937C8.33634 14.2345 8.33634 14.0523 8.24932 13.8932C7.26362 12.0906 6.27762 10.288 5.29192 8.48554L5.08507 8.10713C4.99804 7.94787 4.99804 7.76567 5.08507 7.60652L5.29192 7.22822L7.9055 2.4492C7.99263 2.28994 8.14213 2.19884 8.31628 2.19884H10.3175H11.3466C11.5208 2.19884 11.6702 2.28994 11.7575 2.4492C11.8445 2.60835 11.8445 2.79066 11.7575 2.94992C10.9086 4.50205 10.0597 6.05428 9.21088 7.60641C9.12385 7.76567 9.12385 7.94787 9.21088 8.10702C10.2657 10.0359 11.3206 11.9649 12.3754 13.8938C12.4624 14.0528 12.4625 14.2349 12.3756 14.3941C11.8687 15.3227 10.0945 18.5644 9.55459 19.5514C9.46746 19.7105 9.31796 19.8016 9.14391 19.8016V19.8015ZM5.74282 13.451C3.35919 13.0708 1.49029 11.0329 1.22358 8.48543C1.20195 8.27907 1.19088 8.06919 1.19088 7.85666C1.19088 7.64424 1.20195 7.43446 1.22358 7.228C1.49029 4.6805 3.35909 2.64265 5.74282 2.26247C5.92743 2.23303 6.10033 2.31266 6.20543 2.47545C6.31063 2.63824 6.31763 2.83742 6.22434 3.00804L4.26026 6.59923L3.91644 7.228L3.69873 7.62626C3.65527 7.68461 3.65809 8.01449 3.67898 8.05132L3.91644 8.48543L6.22434 12.7054C6.31763 12.8761 6.31052 13.0753 6.20543 13.238C6.10022 13.4008 5.92722 13.4804 5.74262 13.451H5.74282Z" fill="white" />
	<path d="M29.538 16.0783C28.798 16.0783 28.058 15.9666 27.4236 15.7435C26.8951 15.5204 26.3666 15.1855 25.838 14.7391C25.838 14.6274 25.7323 14.5159 25.838 14.4043L26.5779 13.3999C26.5779 13.3999 26.5779 13.2883 26.6837 13.2883C26.7893 13.2883 26.7893 13.2883 26.895 13.3999C27.2122 13.7347 27.6351 13.9579 28.0578 14.0695C28.4807 14.2927 28.9036 14.4043 29.3264 14.4043C29.6436 14.4043 29.9606 14.4043 30.2778 14.2927C30.4893 14.1812 30.7007 14.0695 30.9121 13.8464C31.0178 13.7347 31.1235 13.3999 31.1235 13.0652C31.1235 12.7303 31.0178 12.3956 30.8064 12.1725C30.5949 11.9491 30.2778 11.8376 29.855 11.6144C29.5379 11.5029 29.115 11.3912 28.7979 11.2796C27.9523 10.9448 27.3179 10.61 26.895 10.052C26.4721 9.60556 26.2608 8.93598 26.2608 8.15479C26.2608 7.59671 26.3666 7.15037 26.5779 6.59229C26.895 6.14595 27.3179 5.6996 27.8465 5.47637C28.2694 5.14164 29.0093 5.02991 29.7494 5.02991C30.4894 5.02991 31.018 5.02991 31.6522 5.25303C32.0751 5.47626 32.6037 5.69949 33.0266 6.03422C33.0266 6.14584 33.1322 6.25734 33.0266 6.36907L32.3923 7.37349C32.3923 7.4851 32.2866 7.4851 32.2866 7.4851C32.1809 7.4851 32.1809 7.4851 32.0752 7.4851C31.8637 7.26187 31.5466 7.03864 31.2294 6.92703C30.8067 6.81553 30.4896 6.70391 30.1724 6.59229C29.8552 6.59229 29.6438 6.70391 29.3266 6.81552C29.1152 6.92703 28.9039 7.03875 28.6923 7.26187C28.5867 7.37349 28.481 7.59661 28.481 7.81995C28.481 8.26629 28.5867 8.48952 28.7981 8.71264C29.0095 8.93587 29.3266 9.1591 29.7495 9.27061C30.0667 9.38222 30.3837 9.49383 30.8066 9.60545C31.3352 9.82868 31.7581 10.0519 32.0752 10.275C32.498 10.4983 32.8151 10.8331 33.0267 11.1679C33.2381 11.6143 33.4495 12.0606 33.4495 12.6187C33.4495 13.2883 33.2381 13.8464 33.0267 14.4044C32.7096 14.9624 32.2867 15.2971 31.6523 15.632C31.1238 15.9667 30.3837 16.0784 29.5381 16.0784L29.538 16.0783ZM37.0436 11.0562C37.255 12.9534 38.7351 14.4042 40.5322 14.4042C42.435 14.4042 44.0207 12.7302 44.0207 10.6098C44.0207 8.48941 42.435 6.81541 40.5322 6.81541C38.735 6.81541 37.255 8.26618 37.0436 10.1634C36.9379 10.2749 36.9379 10.4983 36.9379 10.6098C36.9379 10.7214 36.9379 10.9446 37.0436 11.0562ZM37.0436 15.4086V20.8771C37.0436 20.9886 36.9379 21.1002 36.8323 21.1002H35.4579C35.2466 21.1002 35.2466 20.9886 35.2466 20.8771V11.6141V9.60523V5.1413C35.2466 5.02969 35.2466 4.91796 35.4579 4.91796H36.8323C36.9379 4.91796 37.0436 5.02969 37.0436 5.1413V5.81088C37.0436 5.92239 37.0436 6.034 37.1493 6.034C37.1493 6.034 37.255 6.034 37.3607 6.034C38.2064 5.36443 39.3693 4.91796 40.5322 4.91796C43.4922 4.91796 45.9235 7.48488 45.9235 10.6096C45.9235 13.7345 43.4922 16.3013 40.5322 16.3013C39.3694 16.3013 38.2064 15.855 37.3607 15.1854C37.255 15.1854 37.1493 15.1854 37.1493 15.1854C37.0436 15.1854 37.0436 15.2969 37.0436 15.4086ZM56.6005 11.0562C56.389 12.9534 54.9092 14.2926 53.0063 14.2926C51.1035 14.2926 49.5178 12.6186 49.5178 10.6098C49.5178 8.48941 51.1035 6.81541 53.0063 6.81541C54.9092 6.81541 56.3891 8.26618 56.6005 10.0518C56.6005 10.275 56.6005 10.3866 56.6005 10.6098C56.6005 10.7214 56.6005 10.9446 56.6005 11.0562ZM56.6005 15.4086V15.9666C56.6005 16.0783 56.7062 16.1899 56.8119 16.1899H58.1861C58.292 16.1899 58.3977 16.0783 58.3977 15.9666V11.5027V9.60534V5.14141C58.3977 5.0298 58.292 4.91808 58.1861 4.91808H56.8119C56.7062 4.91808 56.6005 5.0298 56.6005 5.14141V5.81099C56.6005 5.9225 56.4948 5.9225 56.4948 6.03411C56.389 6.03411 56.2833 6.03411 56.2833 6.03411C55.3319 5.25292 54.2748 4.91808 53.0063 4.91808C50.0463 4.91808 47.6149 7.48499 47.6149 10.6098C47.6149 13.7346 50.0463 16.3014 53.0063 16.3014C54.2749 16.3014 55.332 15.8551 56.2833 15.1855C56.2833 15.0739 56.389 15.0739 56.4948 15.1855C56.4948 15.1855 56.6005 15.297 56.6005 15.4087V15.4086ZM62.8377 8.26607C63.4719 7.37327 64.4233 6.92681 65.5861 6.92681C66.5375 6.92681 67.489 7.37327 68.1232 8.04284C68.2289 8.15446 68.3346 8.15446 68.4403 8.04284L69.4974 7.15015C69.603 7.03853 69.603 7.03853 69.603 6.92681C69.603 6.92681 69.603 6.8153 69.4974 6.8153C68.546 5.69927 67.1717 4.91796 65.586 4.91796C63.8946 4.91796 62.4146 5.69927 61.4632 6.92681C60.6175 7.93123 60.1946 9.27049 60.1946 10.6096C60.1946 12.0605 60.6175 13.2881 61.4632 14.2925C62.4146 15.5201 63.8946 16.3013 65.586 16.3013C67.1717 16.3013 68.546 15.6318 69.4974 14.5158C69.603 14.4042 69.603 14.4042 69.603 14.2926C69.603 14.2926 69.603 14.1811 69.4974 14.1811L68.4403 13.1767C68.3346 13.0651 68.2289 13.0651 68.1232 13.1767C67.4888 13.9578 66.5375 14.4042 65.5861 14.4042C64.4233 14.4042 63.4719 13.8463 62.8377 13.0649C62.309 12.3954 61.9918 11.5026 61.9918 10.6096C61.9918 9.71695 62.3089 8.93565 62.8377 8.26607ZM84.2973 10.6096C84.2973 8.4893 85.883 6.8153 87.7859 6.8153C88.9486 6.8153 89.9001 7.37327 90.5343 8.15457C90.5343 8.26607 90.6401 8.3778 90.5343 8.3778C90.5343 8.48941 90.5343 8.48941 90.4287 8.60092L84.5087 10.833C84.5087 10.833 84.4031 10.833 84.2973 10.833C84.2973 10.7214 84.2973 10.7214 84.2973 10.6098V10.6096ZM91.3801 10.2749L92.9658 9.60534C93.0714 9.60534 93.0714 9.49383 93.0714 9.38211C92.5429 6.8153 90.4287 4.91796 87.7859 4.91796C84.8259 4.91796 82.3945 7.48488 82.3945 10.6096C82.3945 13.7345 84.8259 16.3013 87.7859 16.3013C89.6887 16.3013 91.3801 15.1854 92.3316 13.6229C92.4372 13.6229 92.4372 13.5114 92.3316 13.3997C92.3316 13.3997 92.3316 13.2881 92.2258 13.2881L90.8515 12.7301C90.7459 12.7301 90.6402 12.7301 90.6402 12.8418C90.0059 13.7345 88.9486 14.2926 87.786 14.2926C86.7288 14.2926 85.6718 13.8463 85.0374 12.9533C85.0374 12.9533 85.0374 12.8418 85.0374 12.7301L85.1431 12.6185L87.786 11.6141L91.3802 10.2748L91.3801 10.2749ZM72.4574 10.6096C72.4574 8.60081 74.0431 6.92681 76.0517 6.92681C77.1088 6.92681 78.1659 7.37327 78.8002 8.26607C78.8002 8.26607 78.8002 8.37769 78.8002 8.4893C78.8002 8.4893 78.8002 8.60081 78.6946 8.60081L73.6204 10.6096L72.7746 10.8329C72.7746 10.9444 72.669 10.9444 72.5633 10.8329L72.4575 10.7213C72.4575 10.6096 72.4575 10.6096 72.4575 10.6096H72.4574ZM79.5402 10.2749L81.2317 9.71695C81.3373 9.60534 81.3373 9.49372 81.3373 9.38211C80.8088 6.8153 78.5889 4.91796 76.0517 4.91796C73.0917 4.91796 70.6603 7.48488 70.6603 10.6096C70.6603 13.7345 73.0917 16.3013 76.0517 16.3013C77.9545 16.3013 79.6459 15.2969 80.5974 13.7345C80.5974 13.6229 80.5974 13.5114 80.5974 13.5114C80.5974 13.3997 80.5974 13.3997 80.4916 13.3997L79.1173 12.8417C79.0117 12.8417 78.906 12.8417 78.906 12.9532C78.2717 13.8461 77.2145 14.4041 76.0517 14.4041C74.9945 14.4041 73.9375 13.8461 73.3032 13.0648C73.3032 12.9532 73.3032 12.8417 73.3032 12.8417C73.3032 12.73 73.3032 12.73 73.4089 12.6184L76.0517 11.614L79.5402 10.2747V10.2749ZM96.2428 0.900391H97.6171C97.7228 0.900391 97.8284 1.01201 97.8284 1.12373V5.36453C97.8284 5.47615 97.9342 5.58765 98.0399 5.58765H100.788C100.894 5.58765 101 5.69938 101 5.81099V7.26176C101 7.37338 100.894 7.48499 100.788 7.48499H98.0399C97.9342 7.48499 97.8284 7.59649 97.8284 7.70822V15.9666C97.8284 16.0783 97.7228 16.1899 97.6171 16.1899H96.2428C96.1372 16.1899 96.0314 16.0783 96.0314 15.9666V7.70822C96.0314 7.59649 95.9257 7.48499 95.8201 7.48499H94.34C94.2344 7.48499 94.1287 7.37338 94.1287 7.26176V5.81099C94.1287 5.69938 94.2344 5.58765 94.34 5.58765H95.8201C95.9257 5.58765 96.0314 5.47615 96.0314 5.36453V1.12373C96.0314 1.01201 96.1372 0.900391 96.2428 0.900391Z" fill="white" />
</svg>
